<?xml version="1.0" encoding="utf-8"?>
<svg version="1.1" xmlns:xlink="http://www.w3.org/1999/xlink" width="12px" height="12px" viewBox="189 233  12 12" xmlns="http://www.w3.org/2000/svg">
  <path d="M 195 233  C 198.36 233  201 235.64  201 239  C 201 242.36  198.36 245  195 245  C 191.64 245  189 242.36  189 239  C 189 235.64  191.64 233  195 233  Z " fill-rule="nonzero" fill="#ffffff" stroke="none" />
  <path d="M 195 233.5  C 198.08 233.5  200.5 235.92  200.5 239  C 200.5 242.08  198.08 244.5  195 244.5  C 191.92 244.5  189.5 242.08  189.5 239  C 189.5 235.92  191.92 233.5  195 233.5  Z " stroke-width="1" stroke="#797979" fill="none" />
  <path d="M 195 242  C 193.32 242  192 240.68  192 239  C 192 237.32  193.32 236  195 236  C 196.68 236  198 237.32  198 239  C 198 240.68  196.68 242  195 242  " fill-rule="nonzero" fill="#797979" stroke="none" />
</svg>