<?xml version="1.0" encoding="utf-8"?>
<svg version="1.1" xmlns:xlink="http://www.w3.org/1999/xlink" width="12px" height="12px" viewBox="201 527  12 12" xmlns="http://www.w3.org/2000/svg">
  <path d="M 207 527  C 210.36 527  213 529.64  213 533  C 213 536.36  210.36 539  207 539  C 203.64 539  201 536.36  201 533  C 201 529.64  203.64 527  207 527  Z " fill-rule="nonzero" fill="#ffffff" stroke="none" />
  <path d="M 207 527.5  C 210.08 527.5  212.5 529.92  212.5 533  C 212.5 536.08  210.08 538.5  207 538.5  C 203.92 538.5  201.5 536.08  201.5 533  C 201.5 529.92  203.92 527.5  207 527.5  Z " stroke-width="1" stroke="#797979" fill="none" />
  <path d="M 207 536  C 205.32 536  204 534.68  204 533  C 204 531.32  205.32 530  207 530  C 208.68 530  210 531.32  210 533  C 210 534.68  208.68 536  207 536  " fill-rule="nonzero" fill="#797979" stroke="none" />
</svg>