<?xml version="1.0" encoding="utf-8"?>
<svg version="1.1" xmlns:xlink="http://www.w3.org/1999/xlink" width="12px" height="12px" viewBox="201 581  12 12" xmlns="http://www.w3.org/2000/svg">
  <path d="M 207 581  C 210.36 581  213 583.64  213 587  C 213 590.36  210.36 593  207 593  C 203.64 593  201 590.36  201 587  C 201 583.64  203.64 581  207 581  Z " fill-rule="nonzero" fill="#ffffff" stroke="none" />
  <path d="M 207 581.5  C 210.08 581.5  212.5 583.92  212.5 587  C 212.5 590.08  210.08 592.5  207 592.5  C 203.92 592.5  201.5 590.08  201.5 587  C 201.5 583.92  203.92 581.5  207 581.5  Z " stroke-width="1" stroke="#797979" fill="none" />
  <path d="M 207 590  C 205.32 590  204 588.68  204 587  C 204 585.32  205.32 584  207 584  C 208.68 584  210 585.32  210 587  C 210 588.68  208.68 590  207 590  " fill-rule="nonzero" fill="#797979" stroke="none" />
</svg>