<?xml version="1.0" encoding="utf-8"?>
<svg version="1.1" xmlns:xlink="http://www.w3.org/1999/xlink" width="12px" height="12px" viewBox="276 233  12 12" xmlns="http://www.w3.org/2000/svg">
  <path d="M 282 233  C 285.36 233  288 235.64  288 239  C 288 242.36  285.36 245  282 245  C 278.64 245  276 242.36  276 239  C 276 235.64  278.64 233  282 233  Z " fill-rule="nonzero" fill="#ffffff" stroke="none" />
  <path d="M 282 233.5  C 285.08 233.5  287.5 235.92  287.5 239  C 287.5 242.08  285.08 244.5  282 244.5  C 278.92 244.5  276.5 242.08  276.5 239  C 276.5 235.92  278.92 233.5  282 233.5  Z " stroke-width="1" stroke="#797979" fill="none" />
  <path d="M 282 242  C 280.32 242  279 240.68  279 239  C 279 237.32  280.32 236  282 236  C 283.68 236  285 237.32  285 239  C 285 240.68  283.68 242  282 242  " fill-rule="nonzero" fill="#797979" stroke="none" />
</svg>