<?xml version="1.0" encoding="utf-8"?>
<svg version="1.1" xmlns:xlink="http://www.w3.org/1999/xlink" width="14px" height="11px" xmlns="http://www.w3.org/2000/svg">
  <g transform="matrix(1 0 0 1 -89 -245 )">
    <path d="M 13.5288461538462 3.94391934467549  C 13.8429487179487 3.98550724637681  14 4.09178743961353  14 4.26275992438563  C 14 4.36441923965553  13.9270833333333 4.47532031085906  13.78125 4.59546313799622  L 10.7271634615385 7.04914933837429  L 11.4507211538462 10.5148078134846  C 11.4563301282051 10.5471539592523  11.4591346153846 10.5933627389204  11.4591346153846 10.653434152489  C 11.4591346153846 10.7504725897921  11.4296875 10.832493173703  11.3707932692308 10.8994959042218  C 11.3118990384615 10.9664986347406  11.2263621794872 11  11.1141826923077 11  C 11.0076121794872 11  10.8954326923077 10.9722747321991  10.7776442307692 10.9168241965974  L 7 9.28103339634531  L 3.22235576923077 10.9168241965974  C 3.09895833333333 10.9722747321991  2.98677884615385 11  2.88581730769231 11  C 2.76802884615385 11  2.6796875 10.9664986347406  2.62079326923077 10.8994959042218  C 2.56189903846154 10.832493173703  2.53245192307692 10.7504725897921  2.53245192307692 10.653434152489  C 2.53245192307692 10.6257088846881  2.5380608974359 10.57950010502  2.54927884615385 10.5148078134846  L 3.27283653846154 7.04914933837429  L 0.210336538461538 4.59546313799622  C 0.0701121794871795 4.47069943289225  0 4.35979836168872  0 4.26275992438563  C 0 4.09178743961353  0.157051282051282 3.98550724637681  0.471153846153846 3.94391934467549  L 4.69471153846154 3.43793320730939  L 6.58774038461539 0.284183994959042  C 6.6943108974359 0.0947279983196802  6.83173076923077 0  7 0  C 7.16826923076923 0  7.3056891025641 0.0947279983196802  7.41225961538462 0.284183994959042  L 9.30528846153846 3.43793320730939  L 13.5288461538462 3.94391934467549  Z " fill-rule="nonzero" fill="#ffffff" stroke="none" transform="matrix(1 0 0 1 89 245 )" />
  </g>
</svg>