<?xml version="1.0" encoding="utf-8"?>
<svg version="1.1" xmlns:xlink="http://www.w3.org/1999/xlink" width="6px" height="6px" xmlns="http://www.w3.org/2000/svg">
  <g transform="matrix(1 0 0 1 -19 -13 )">
    <path d="M 22 13  C 23.68 13  25 14.32  25 16  C 25 17.68  23.68 19  22 19  C 20.32 19  19 17.68  19 16  C 19 14.32  20.32 13  22 13  Z " fill-rule="nonzero" fill="#999999" stroke="none" />
    <path d="M 22 13.5  C 23.4 13.5  24.5 14.6  24.5 16  C 24.5 17.4  23.4 18.5  22 18.5  C 20.6 18.5  19.5 17.4  19.5 16  C 19.5 14.6  20.6 13.5  22 13.5  Z " stroke-width="1" stroke="#797979" fill="none" />
  </g>
</svg>