<?xml version="1.0" encoding="utf-8"?>
<svg version="1.1" xmlns:xlink="http://www.w3.org/1999/xlink" width="4px" height="4px" xmlns="http://www.w3.org/2000/svg">
  <g transform="matrix(1 0 0 1 -12 -14 )">
    <path d="M 14 14  C 15.12 14  16 14.88  16 16  C 16 17.12  15.12 18  14 18  C 12.88 18  12 17.12  12 16  C 12 14.88  12.88 14  14 14  Z " fill-rule="nonzero" fill="#999999" stroke="none" />
    <path d="M 14 14.5  C 14.84 14.5  15.5 15.16  15.5 16  C 15.5 16.84  14.84 17.5  14 17.5  C 13.16 17.5  12.5 16.84  12.5 16  C 12.5 15.16  13.16 14.5  14 14.5  Z " stroke-width="1" stroke="#797979" fill="none" />
  </g>
</svg>