<?xml version="1.0" encoding="utf-8"?>
<svg version="1.1" xmlns:xlink="http://www.w3.org/1999/xlink" width="16px" height="16px" xmlns="http://www.w3.org/2000/svg">
  <g transform="matrix(1 0 0 1 -52 -8 )">
    <path d="M 60 10  C 63.36 10  66 12.64  66 16  C 66 19.36  63.36 22  60 22  C 56.64 22  54 19.36  54 16  C 54 12.64  56.64 10  60 10  Z " fill-rule="nonzero" fill="#ffffff" stroke="none" />
    <path d="M 60 9.5  C 63.64 9.5  66.5 12.36  66.5 16  C 66.5 19.64  63.64 22.5  60 22.5  C 56.36 22.5  53.5 19.64  53.5 16  C 53.5 12.36  56.36 9.5  60 9.5  Z " stroke-width="3" stroke="#999999" fill="none" />
  </g>
</svg>