<?xml version="1.0" encoding="utf-8"?>
<svg version="1.1" xmlns:xlink="http://www.w3.org/1999/xlink" width="150px" height="6px" xmlns="http://www.w3.org/2000/svg">
  <g transform="matrix(1 0 0 1 -126 -775 )">
    <path d="M 127 778  A 2 2 0 0 1 129 776 L 273 776  A 2 2 0 0 1 275 778 A 2 2 0 0 1 273 780 L 129 780  A 2 2 0 0 1 127 778 Z " fill-rule="nonzero" fill="#555555" stroke="none" />
    <path d="M 126.5 778  A 2.5 2.5 0 0 1 129 775.5 L 273 775.5  A 2.5 2.5 0 0 1 275.5 778 A 2.5 2.5 0 0 1 273 780.5 L 129 780.5  A 2.5 2.5 0 0 1 126.5 778 Z " stroke-width="1" stroke="#aaaaaa" fill="none" stroke-opacity="0.694117647058824" />
  </g>
</svg>