<?xml version="1.0" encoding="utf-8"?>
<svg version="1.1" xmlns:xlink="http://www.w3.org/1999/xlink" width="52px" height="50px" xmlns="http://www.w3.org/2000/svg">
  <g transform="matrix(1 0 0 1 -183 -671 )">
    <path d="M 209 671  C 223.56 671  235 682  235 696  C 235 710  223.56 721  209 721  C 194.44 721  183 710  183 696  C 183 682  194.44 671  209 671  Z " fill-rule="nonzero" fill="#d7d7d7" stroke="none" />
    <path d="M 209 671.5  C 223.28 671.5  234.5 682.28  234.5 696  C 234.5 709.72  223.28 720.5  209 720.5  C 194.72 720.5  183.5 709.72  183.5 696  C 183.5 682.28  194.72 671.5  209 671.5  Z " stroke-width="1" stroke="#797979" fill="none" />
  </g>
</svg>