<?xml version="1.0" encoding="utf-8"?>
<svg version="1.1" xmlns:xlink="http://www.w3.org/1999/xlink" width="69px" height="66px" xmlns="http://www.w3.org/2000/svg">
  <g transform="matrix(1 0 0 1 -174 -663 )">
    <path d="M 208.5 663  C 227.82 663  243 677.52  243 696  C 243 714.48  227.82 729  208.5 729  C 189.18 729  174 714.48  174 696  C 174 677.52  189.18 663  208.5 663  Z " fill-rule="nonzero" fill="#ffffff" stroke="none" />
    <path d="M 208.5 663.5  C 227.54 663.5  242.5 677.8  242.5 696  C 242.5 714.2  227.54 728.5  208.5 728.5  C 189.46 728.5  174.5 714.2  174.5 696  C 174.5 677.8  189.46 663.5  208.5 663.5  Z " stroke-width="1" stroke="#797979" fill="none" />
  </g>
</svg>