<?xml version="1.0" encoding="utf-8"?>
<svg version="1.1" xmlns:xlink="http://www.w3.org/1999/xlink" width="22px" height="22px" xmlns="http://www.w3.org/2000/svg">
  <g transform="matrix(1 0 0 1 -368 -92 )">
    <path d="M 379 92  C 385.16 92  390 96.84  390 103  C 390 109.16  385.16 114  379 114  C 372.84 114  368 109.16  368 103  C 368 96.84  372.84 92  379 92  Z " fill-rule="nonzero" fill="#d7d7d7" stroke="none" />
    <path d="M 379 92.5  C 384.88 92.5  389.5 97.12  389.5 103  C 389.5 108.88  384.88 113.5  379 113.5  C 373.12 113.5  368.5 108.88  368.5 103  C 368.5 97.12  373.12 92.5  379 92.5  Z " stroke-width="1" stroke="#797979" fill="none" />
  </g>
</svg>