<?xml version="1.0" encoding="utf-8"?>
<svg version="1.1" xmlns:xlink="http://www.w3.org/1999/xlink" width="22px" height="22px" xmlns="http://www.w3.org/2000/svg">
  <g transform="matrix(1 0 0 1 -357 -223 )">
    <path d="M 368 223  C 374.16 223  379 227.84  379 234  C 379 240.16  374.16 245  368 245  C 361.84 245  357 240.16  357 234  C 357 227.84  361.84 223  368 223  Z " fill-rule="nonzero" fill="#ffffff" stroke="none" />
    <path d="M 368 223.5  C 373.88 223.5  378.5 228.12  378.5 234  C 378.5 239.88  373.88 244.5  368 244.5  C 362.12 244.5  357.5 239.88  357.5 234  C 357.5 228.12  362.12 223.5  368 223.5  Z " stroke-width="1" stroke="#797979" fill="none" />
  </g>
</svg>