<?xml version="1.0" encoding="utf-8"?>
<svg version="1.1" xmlns:xlink="http://www.w3.org/1999/xlink" width="67px" height="59px" xmlns="http://www.w3.org/2000/svg">
  <g transform="matrix(1 0 0 1 -13 -13 )">
    <path d="M 13 13  L 80 13  L 80 72  L 13 72  L 13 13  " fill-rule="nonzero" fill="#cccccc" stroke="none" />
    <path d="M 17 17  L 76 17  L 76 68  L 17 68  L 17 17  " fill-rule="nonzero" fill="#ffffff" stroke="none" />
    <path d="M 52.265 30.7  C 49.787 30.7  47.84 28.753  47.84 26.275  C 47.84 23.797  49.787 21.85  52.265 21.85  C 54.743 21.85  56.69 23.797  56.69 26.275  C 56.69 28.753  54.743 30.7  52.265 30.7  " fill-rule="nonzero" fill="#cccccc" stroke="none" />
    <path d="M 19 67  L 19 40.6  L 33 28.6  L 52.6 41.6388059701493  L 63.8 35.8  L 75 41.6388059701493  L 75 67  L 19 67  " fill-rule="nonzero" fill="#169bd5" stroke="none" />
  </g>
</svg>