<?xml version="1.0" encoding="utf-8"?>
<svg version="1.1" xmlns:xlink="http://www.w3.org/1999/xlink" width="12px" height="12px" viewBox="363 202  12 12" xmlns="http://www.w3.org/2000/svg">
  <path d="M 369 202  C 372.36 202  375 204.64  375 208  C 375 211.36  372.36 214  369 214  C 365.64 214  363 211.36  363 208  C 363 204.64  365.64 202  369 202  Z " fill-rule="nonzero" fill="#ffffff" stroke="none" />
  <path d="M 369 202.5  C 372.08 202.5  374.5 204.92  374.5 208  C 374.5 211.08  372.08 213.5  369 213.5  C 365.92 213.5  363.5 211.08  363.5 208  C 363.5 204.92  365.92 202.5  369 202.5  Z " stroke-width="1" stroke="#797979" fill="none" />
  <path d="M 369 211  C 367.32 211  366 209.68  366 208  C 366 206.32  367.32 205  369 205  C 370.68 205  372 206.32  372 208  C 372 209.68  370.68 211  369 211  " fill-rule="nonzero" fill="#797979" stroke="none" />
</svg>