<?xml version="1.0" encoding="utf-8"?>
<svg version="1.1" xmlns:xlink="http://www.w3.org/1999/xlink" width="12px" height="12px" viewBox="363 317  12 12" xmlns="http://www.w3.org/2000/svg">
  <path d="M 369 317  C 372.36 317  375 319.64  375 323  C 375 326.36  372.36 329  369 329  C 365.64 329  363 326.36  363 323  C 363 319.64  365.64 317  369 317  Z " fill-rule="nonzero" fill="#ffffff" stroke="none" />
  <path d="M 369 317.5  C 372.08 317.5  374.5 319.92  374.5 323  C 374.5 326.08  372.08 328.5  369 328.5  C 365.92 328.5  363.5 326.08  363.5 323  C 363.5 319.92  365.92 317.5  369 317.5  Z " stroke-width="1" stroke="#797979" fill="none" />
  <path d="M 369 326  C 367.32 326  366 324.68  366 323  C 366 321.32  367.32 320  369 320  C 370.68 320  372 321.32  372 323  C 372 324.68  370.68 326  369 326  " fill-rule="nonzero" fill="#797979" stroke="none" />
</svg>