<?xml version="1.0" encoding="utf-8"?>
<svg version="1.1" xmlns:xlink="http://www.w3.org/1999/xlink" width="86px" height="80px" xmlns="http://www.w3.org/2000/svg">
  <g transform="matrix(1 0 0 1 -12 -146 )">
    <path d="M 12 146  L 98 146  L 98 226  L 12 226  L 12 146  " fill-rule="nonzero" fill="#cccccc" stroke="none" />
    <path d="M 18 152  L 92 152  L 92 220  L 18 220  L 18 152  " fill-rule="nonzero" fill="#ffffff" stroke="none" />
    <path d="M 62.72 170  C 59.36 170  56.72 167.36  56.72 164  C 56.72 160.64  59.36 158  62.72 158  C 66.08 158  68.72 160.64  68.72 164  C 68.72 167.36  66.08 170  62.72 170  " fill-rule="nonzero" fill="#cccccc" stroke="none" />
    <path d="M 20 218  L 20 182.8  L 37.5 166.8  L 62 182.279069767442  L 76 176.4  L 90 182.279069767442  L 90 218  L 20 218  " fill-rule="nonzero" fill="#169bd5" stroke="none" />
  </g>
</svg>