<?xml version="1.0" encoding="utf-8"?>
<svg version="1.1" xmlns:xlink="http://www.w3.org/1999/xlink" width="12px" height="12px" viewBox="265 546  12 12" xmlns="http://www.w3.org/2000/svg">
  <path d="M 271 546  C 274.36 546  277 548.64  277 552  C 277 555.36  274.36 558  271 558  C 267.64 558  265 555.36  265 552  C 265 548.64  267.64 546  271 546  Z " fill-rule="nonzero" fill="#ffffff" stroke="none" />
  <path d="M 271 546.5  C 274.08 546.5  276.5 548.92  276.5 552  C 276.5 555.08  274.08 557.5  271 557.5  C 267.92 557.5  265.5 555.08  265.5 552  C 265.5 548.92  267.92 546.5  271 546.5  Z " stroke-width="1" stroke="#797979" fill="none" />
  <path d="M 271 555  C 269.32 555  268 553.68  268 552  C 268 550.32  269.32 549  271 549  C 272.68 549  274 550.32  274 552  C 274 553.68  272.68 555  271 555  " fill-rule="nonzero" fill="#797979" stroke="none" />
</svg>