<?xml version="1.0" encoding="utf-8"?>
<svg version="1.1" xmlns:xlink="http://www.w3.org/1999/xlink" width="12px" height="12px" viewBox="352 678  12 12" xmlns="http://www.w3.org/2000/svg">
  <path d="M 358 678  C 361.36 678  364 680.64  364 684  C 364 687.36  361.36 690  358 690  C 354.64 690  352 687.36  352 684  C 352 680.64  354.64 678  358 678  Z " fill-rule="nonzero" fill="#ffffff" stroke="none" />
  <path d="M 358 678.5  C 361.08 678.5  363.5 680.92  363.5 684  C 363.5 687.08  361.08 689.5  358 689.5  C 354.92 689.5  352.5 687.08  352.5 684  C 352.5 680.92  354.92 678.5  358 678.5  Z " stroke-width="1" stroke="#797979" fill="none" />
  <path d="M 358 687  C 356.32 687  355 685.68  355 684  C 355 682.32  356.32 681  358 681  C 359.68 681  361 682.32  361 684  C 361 685.68  359.68 687  358 687  " fill-rule="nonzero" fill="#797979" stroke="none" />
</svg>