<?xml version="1.0" encoding="utf-8"?>
<svg version="1.1" xmlns:xlink="http://www.w3.org/1999/xlink" width="12px" height="12px" viewBox="265 589  12 12" xmlns="http://www.w3.org/2000/svg">
  <path d="M 271 589  C 274.36 589  277 591.64  277 595  C 277 598.36  274.36 601  271 601  C 267.64 601  265 598.36  265 595  C 265 591.64  267.64 589  271 589  Z " fill-rule="nonzero" fill="#ffffff" stroke="none" />
  <path d="M 271 589.5  C 274.08 589.5  276.5 591.92  276.5 595  C 276.5 598.08  274.08 600.5  271 600.5  C 267.92 600.5  265.5 598.08  265.5 595  C 265.5 591.92  267.92 589.5  271 589.5  Z " stroke-width="1" stroke="#797979" fill="none" />
  <path d="M 271 598  C 269.32 598  268 596.68  268 595  C 268 593.32  269.32 592  271 592  C 272.68 592  274 593.32  274 595  C 274 596.68  272.68 598  271 598  " fill-rule="nonzero" fill="#797979" stroke="none" />
</svg>