<?xml version="1.0" encoding="utf-8"?>
<svg version="1.1" xmlns:xlink="http://www.w3.org/1999/xlink" width="12px" height="12px" viewBox="190 635  12 12" xmlns="http://www.w3.org/2000/svg">
  <path d="M 196 635  C 199.36 635  202 637.64  202 641  C 202 644.36  199.36 647  196 647  C 192.64 647  190 644.36  190 641  C 190 637.64  192.64 635  196 635  Z " fill-rule="nonzero" fill="#ffffff" stroke="none" />
  <path d="M 196 635.5  C 199.08 635.5  201.5 637.92  201.5 641  C 201.5 644.08  199.08 646.5  196 646.5  C 192.92 646.5  190.5 644.08  190.5 641  C 190.5 637.92  192.92 635.5  196 635.5  Z " stroke-width="1" stroke="#797979" fill="none" />
  <path d="M 196 644  C 194.32 644  193 642.68  193 641  C 193 639.32  194.32 638  196 638  C 197.68 638  199 639.32  199 641  C 199 642.68  197.68 644  196 644  " fill-rule="nonzero" fill="#797979" stroke="none" />
</svg>