<?xml version="1.0" encoding="utf-8"?>
<svg version="1.1" xmlns:xlink="http://www.w3.org/1999/xlink" width="12px" height="12px" viewBox="190 546  12 12" xmlns="http://www.w3.org/2000/svg">
  <path d="M 196 546  C 199.36 546  202 548.64  202 552  C 202 555.36  199.36 558  196 558  C 192.64 558  190 555.36  190 552  C 190 548.64  192.64 546  196 546  Z " fill-rule="nonzero" fill="#ffffff" stroke="none" />
  <path d="M 196 546.5  C 199.08 546.5  201.5 548.92  201.5 552  C 201.5 555.08  199.08 557.5  196 557.5  C 192.92 557.5  190.5 555.08  190.5 552  C 190.5 548.92  192.92 546.5  196 546.5  Z " stroke-width="1" stroke="#797979" fill="none" />
  <path d="M 196 555  C 194.32 555  193 553.68  193 552  C 193 550.32  194.32 549  196 549  C 197.68 549  199 550.32  199 552  C 199 553.68  197.68 555  196 555  " fill-rule="nonzero" fill="#797979" stroke="none" />
</svg>