<?xml version="1.0" encoding="utf-8"?>
<svg version="1.1" xmlns:xlink="http://www.w3.org/1999/xlink" width="12px" height="12px" viewBox="265 635  12 12" xmlns="http://www.w3.org/2000/svg">
  <path d="M 271 635  C 274.36 635  277 637.64  277 641  C 277 644.36  274.36 647  271 647  C 267.64 647  265 644.36  265 641  C 265 637.64  267.64 635  271 635  Z " fill-rule="nonzero" fill="#ffffff" stroke="none" />
  <path d="M 271 635.5  C 274.08 635.5  276.5 637.92  276.5 641  C 276.5 644.08  274.08 646.5  271 646.5  C 267.92 646.5  265.5 644.08  265.5 641  C 265.5 637.92  267.92 635.5  271 635.5  Z " stroke-width="1" stroke="#797979" fill="none" />
  <path d="M 271 644  C 269.32 644  268 642.68  268 641  C 268 639.32  269.32 638  271 638  C 272.68 638  274 639.32  274 641  C 274 642.68  272.68 644  271 644  " fill-rule="nonzero" fill="#797979" stroke="none" />
</svg>