<?xml version="1.0" encoding="utf-8"?>
<svg version="1.1" xmlns:xlink="http://www.w3.org/1999/xlink" width="12px" height="12px" viewBox="352 720  12 12" xmlns="http://www.w3.org/2000/svg">
  <path d="M 358 720  C 361.36 720  364 722.64  364 726  C 364 729.36  361.36 732  358 732  C 354.64 732  352 729.36  352 726  C 352 722.64  354.64 720  358 720  Z " fill-rule="nonzero" fill="#ffffff" stroke="none" />
  <path d="M 358 720.5  C 361.08 720.5  363.5 722.92  363.5 726  C 363.5 729.08  361.08 731.5  358 731.5  C 354.92 731.5  352.5 729.08  352.5 726  C 352.5 722.92  354.92 720.5  358 720.5  Z " stroke-width="1" stroke="#797979" fill="none" />
  <path d="M 358 729  C 356.32 729  355 727.68  355 726  C 355 724.32  356.32 723  358 723  C 359.68 723  361 724.32  361 726  C 361 727.68  359.68 729  358 729  " fill-rule="nonzero" fill="#797979" stroke="none" />
</svg>