<?xml version="1.0" encoding="utf-8"?>
<svg version="1.1" xmlns:xlink="http://www.w3.org/1999/xlink" width="36px" height="44px" xmlns="http://www.w3.org/2000/svg">
  <g transform="matrix(1 0 0 1 -85 -203 )">
    <path d="M 30 12.5714285714286  C 30 14.9776785714286  29.3828125 17.203869047619  28.1484375 19.25  C 28.8828125 19.4791666666667  29.58203125 19.7901785714286  30.24609375 20.1830357142857  C 30.91015625 20.5758928571429  31.60546875 21.1733630952381  32.33203125 21.9754464285714  C 33.05859375 22.7775297619048  33.6796875 23.7228422619048  34.1953125 24.8113839285714  C 34.7109375 25.8999255952381  35.140625 27.3076636904762  35.484375 29.0345982142857  C 35.828125 30.7615327380952  36 32.6971726190476  36 34.8415178571429  C 36 37.3623511904762  35.21875 39.5189732142857  33.65625 41.3113839285714  C 32.09375 43.1037946428571  30.2109375 44  28.0078125 44  L 7.9921875 44  C 5.7890625 44  3.90625 43.1037946428571  2.34375 41.3113839285714  C 0.78125 39.5189732142857  0 37.3623511904762  0 34.8415178571429  C 0 32.6971726190476  0.171875 30.7615327380952  0.515625 29.0345982142857  C 0.859375 27.3076636904762  1.2890625 25.8999255952381  1.8046875 24.8113839285714  C 2.3203125 23.7228422619048  2.94140625 22.7775297619048  3.66796875 21.9754464285714  C 4.39453125 21.1733630952381  5.08984375 20.5758928571429  5.75390625 20.1830357142857  C 6.41796875 19.7901785714286  7.1171875 19.4791666666667  7.8515625 19.25  C 6.6171875 17.203869047619  6 14.9776785714286  6 12.5714285714286  C 6 10.8690476190476  6.31640625 9.24441964285714  6.94921875 7.69754464285714  C 7.58203125 6.15066964285714  8.4375 4.8125  9.515625 3.68303571428571  C 10.59375 2.55357142857143  11.87109375 1.65736607142857  13.34765625 0.994419642857141  C 14.82421875 0.331473214285712  16.375 0  18 0  C 19.625 0  21.17578125 0.331473214285712  22.65234375 0.994419642857141  C 24.12890625 1.65736607142857  25.40625 2.55357142857143  26.484375 3.68303571428571  C 27.5625 4.8125  28.41796875 6.15066964285714  29.05078125 7.69754464285714  C 29.68359375 9.24441964285714  30 10.8690476190476  30 12.5714285714286  Z M 24.36328125 5.90513392857143  C 22.60546875 4.06361607142857  20.484375 3.14285714285714  18 3.14285714285714  C 15.515625 3.14285714285714  13.39453125 4.06361607142857  11.63671875 5.90513392857143  C 9.87890625 7.74665178571429  9 9.96875  9 12.5714285714286  C 9 15.1741071428571  9.87890625 17.3962053571429  11.63671875 19.2377232142857  C 13.39453125 21.0792410714286  15.515625 22  18 22  C 20.484375 22  22.60546875 21.0792410714286  24.36328125 19.2377232142857  C 26.12109375 17.3962053571429  27 15.1741071428571  27 12.5714285714286  C 27 9.96875  26.12109375 7.74665178571429  24.36328125 5.90513392857143  Z M 7.9921875 40  L 28.0078125 40  C 29.3828125 40.8571428571429  30.55859375 40.2719494047619  31.53515625 39.1015625  C 32.51171875 37.9311755952381  33 36.5111607142857  33 34.8415178571429  C 33 30.9293154761905  32.38671875 27.84375  31.16015625 25.5848214285714  C 29.93359375 23.3258928571429  28.171875 22.1391369047619  25.875 22.0245535714286  C 23.609375 24.1034226190476  20.984375 25.1428571428571  18 25.1428571428571  C 15.015625 25.1428571428571  12.390625 24.1034226190476  10.125 22.0245535714286  C 7.828125 22.1391369047619  6.06640625 23.3258928571429  4.83984375 25.5848214285714  C 3.61328125 27.84375  3 30.9293154761905  3 34.8415178571429  C 3 36.5111607142857  3.48828125 37.9311755952381  4.46484375 39.1015625  C 5.44140625 40.2719494047619  6.6171875 40.8571428571429  7.9921875 40  Z " fill-rule="nonzero" fill="#000000" stroke="none" transform="matrix(1 0 0 1 85 203 )" />
  </g>
</svg>