<?xml version="1.0" encoding="utf-8"?>
<svg version="1.1" xmlns:xlink="http://www.w3.org/1999/xlink" width="17px" height="15px" xmlns="http://www.w3.org/2000/svg">
  <g transform="matrix(1 0 0 1 -111 -111 )">
    <path d="M 16.4278846153846 5.37807183364839  C 16.8092948717949 5.43478260869565  17 5.57971014492754  17 5.81285444234405  C 17 5.95148078134846  16.9114583333333 6.10270951480781  16.734375 6.26654064272212  L 13.0258413461538 9.6124763705104  L 13.9044471153846 14.3383742911153  C 13.9112580128205 14.3824826717076  13.9146634615385 14.4454946439824  13.9146634615385 14.5274102079395  C 13.9146634615385 14.6597353497164  13.87890625 14.7715816005041  13.8073918269231 14.8629489603025  C 13.7358774038462 14.9543163201008  13.6320112179487 15  13.4957932692308 15  C 13.3663862179487 15  13.2301682692308 14.9621928166352  13.0871394230769 14.8865784499055  L 8.5 12.65595463138  L 3.91286057692308 14.8865784499055  C 3.76302083333333 14.9621928166352  3.62680288461538 15  3.50420673076923 15  C 3.36117788461538 15  3.25390625 14.9543163201008  3.18239182692308 14.8629489603025  C 3.11087740384615 14.7715816005041  3.07512019230769 14.6597353497164  3.07512019230769 14.5274102079395  C 3.07512019230769 14.4896030245747  3.08193108974359 14.4265910522999  3.09555288461538 14.3383742911153  L 3.97415865384615 9.6124763705104  L 0.255408653846154 6.26654064272212  C 0.0851362179487179 6.09640831758034  0 5.94517958412098  0 5.81285444234405  C 0 5.57971014492754  0.190705128205128 5.43478260869565  0.572115384615385 5.37807183364839  L 5.70072115384615 4.68809073724008  L 7.99939903846154 0.387523629489602  C 8.12880608974359 0.1291745431632  8.29567307692308 0  8.5 0  C 8.70432692307692 0  8.87119391025641 0.1291745431632  9.00060096153846 0.387523629489602  L 11.2992788461538 4.68809073724008  L 16.4278846153846 5.37807183364839  Z " fill-rule="nonzero" fill="#aaaaaa" stroke="none" transform="matrix(1 0 0 1 111 111 )" />
  </g>
</svg>